<svg xmlns="http://www.w3.org/2000/svg" xml:space="preserve" width="256" height="256"><path d="m252 125-41-47c-2-2-5-3-8-3h-38v-1c0-11-8-19-19-19H20C10 55 1 63 1 74v98c0 6 5 12 12 12h29a23 23 0 0 0 44 0h109a23 23 0 0 0 44 0h5c5 0 10-5 10-11v-41l-2-7zm-11 0h-49l-1-2v-22l1-1h26l23 25zM20 63h126c6 0 11 5 11 11v64H10V74c0-6 5-11 10-11zm44 130a14 14 0 1 1 0-29 14 14 0 0 1 0 29zm22-18a23 23 0 0 0-44 0H13c-2 0-3-1-3-3v-26h147v29H86zm131 18a14 14 0 1 1 0-29 14 14 0 0 1 0 29zm27-18h-4a23 23 0 0 0-45 0h-30V83h38l1 1 7 7h-19c-5 0-10 5-10 10v22c0 6 5 10 10 10h54v40l-2 2z"/></svg>